<?xml version="1.0" encoding="UTF-8"?>
<svg id="Layer_2" xmlns="http://www.w3.org/2000/svg" viewBox="0 0 1201.33 1201.33">
  <defs>
    <style>
      .cls-1 {
        fill: #231f20;
      }
    </style>
  </defs>
  <g id="Layer_1-2" data-name="Layer_1">
    <g>
      <path class="cls-1" d="M566.07,65.21v435.65c0,36.01-29.2,65.21-65.21,65.21H65.21c-36.01,0-65.21-29.2-65.21-65.21v-205.89c0-36.01,29.2-65.21,65.21-65.21h219.87c36.01,0,65.21,29.2,65.21,65.21v12.1c0,36.01-29.2,65.21-65.21,65.21h-129.52c-7.2,0-13.04,5.84-13.04,13.04v25.2c0,7.2,5.84,13.04,13.04,13.04h241.91c14.41,0,26.08-11.68,26.08-26.08v-228.87c0-14.41-11.68-26.08-26.08-26.08H65.21C29.2,142.52,0,113.33,0,77.31v-12.1C0,29.2,29.2,0,65.21,0h435.65c36.01,0,65.21,29.2,65.21,65.21Z"/>
      <path class="cls-1" d="M151.23,842.99v150.62c0,36.01,30.98,65.21,69.19,65.21h815.85c7.64,0,13.84-5.84,13.84-13.04v-25.2c0-7.2-6.2-13.04-13.84-13.04h-517.63c-38.22,0-69.19-29.19-69.19-65.21v-12.1c0-36.01,30.98-65.21,69.19-65.21h613.49c38.22,0,69.19,29.19,69.19,65.21v205.9c0,36.01-30.98,65.21-69.19,65.21H138.39c-76.43,0-138.39-58.39-138.39-130.42v-305.24c0-72.03,61.96-130.42,138.39-130.42h993.74c38.22,0,69.19,29.19,69.19,65.21v12.1c0,36.01-30.98,65.21-69.19,65.21H220.43c-38.22,0-69.19,29.19-69.19,65.21Z"/>
      <path class="cls-1" d="M1175.62,519.09l-5.09,10.57c-15.18,31.5-53.96,45.17-86.63,30.53l-410.92-184.24c-23.01-10.31-37.72-32.56-37.72-57.03v-34.45c0-34.73,29.2-62.89,65.21-62.89h332.27c14.41,0,26.08-11.26,26.08-25.16v-33.82c0-13.89-11.68-25.16-26.08-25.16h-332.27c-36.01,0-65.21-28.16-65.21-62.89v-11.67c0-34.73,29.2-62.89,65.21-62.89h435.65c36.01,0,65.21,28.16,65.21,62.89v233.26c0,34.73-29.2,62.89-65.21,62.89h-162.87l170.71,76.51c32.66,14.64,46.83,52.04,31.66,83.54Z"/>
    </g>
  </g>
</svg>