<?xml version="1.0" encoding="UTF-8"?>
<svg id="Layer_2" xmlns="http://www.w3.org/2000/svg" viewBox="0 0 1019.28 1019.28">
  <defs>
    <style>
      .cls-1 {
        fill: #231f20;
      }

      .cls-2 {
        fill: none;
        stroke: #231f20;
        stroke-miterlimit: 10;
        stroke-width: 30px;
      }
    </style>
  </defs>
  <g id="Layer_1-2" data-name="Layer_1">
    <g>
      <path class="cls-1" d="M184.88,693.92v90.49c0,27.61,22.39,50,50,50h589.53c5.52,0,10-4.48,10-10v-19.32c0-5.52-4.48-10-10-10h-374.04c-27.61,0-50-22.39-50-50v-9.28c0-27.61,22.39-50,50-50h443.31c27.61,0,50,22.39,50,50v157.88c0,27.61-22.39,50-50,50H125.6c-27.61,0-50-22.39-50-50v-309.05c0-27.61,22.39-50,50-50h768.08c27.61,0,50,22.39,50,50v9.28c0,27.61-22.39,50-50,50H234.88c-27.61,0-50,22.39-50,50Z"/>
      <path class="cls-1" d="M484.64,122.72v314.8c0,26.02-21.1,47.12-47.12,47.12H122.72c-26.02,0-47.12-21.1-47.12-47.12v-148.78c0-26.02,21.1-47.12,47.12-47.12h158.88c26.02,0,47.12,21.1,47.12,47.12v8.75c0,26.02-21.1,47.12-47.12,47.12h-93.59c-5.2,0-9.42,4.22-9.42,9.42v18.21c0,5.2,4.22,9.42,9.42,9.42h174.81c10.41,0,18.85-8.44,18.85-18.85v-165.38c0-10.41-8.44-18.85-18.85-18.85H122.72c-26.02,0-47.12-21.1-47.12-47.12v-8.75c0-26.02,21.1-47.12,47.12-47.12h314.8c26.02,0,47.12,21.1,47.12,47.12Z"/>
      <path class="cls-1" d="M925.11,450.7l-3.68,7.64c-10.97,22.76-38.99,32.64-62.6,22.06l-296.93-133.13c-16.62-7.45-27.26-23.53-27.26-41.21v-24.89c0-25.1,21.1-45.45,47.12-45.45h240.1c10.41,0,18.85-8.14,18.85-18.18v-24.44c0-10.04-8.44-18.18-18.85-18.18h-240.1c-26.02,0-47.12-20.35-47.12-45.45v-8.43c0-25.1,21.1-45.45,47.12-45.45h314.8c26.02,0,47.12,20.35,47.12,45.45v168.56c0,25.1-21.1,45.45-47.12,45.45h-117.69l123.36,55.29c23.6,10.58,33.84,37.6,22.87,60.36Z"/>
      <rect class="cls-2" x="15" y="15" width="989.28" height="989.28" rx="90" ry="90"/>
    </g>
  </g>
</svg>